<svg width="187" height="18" fill="none" xmlns="http://www.w3.org/2000/svg"><path d="M180.283 14.932c0 1.562 1.329 2.957 2.99 2.957 1.595 0 2.958-1.395 2.958-2.957 0-1.662-1.363-2.991-2.958-2.991a2.978 2.978 0 00-2.99 2.99z" fill="#20A6E6"/><path fill-rule="evenodd" clip-rule="evenodd" d="M16.26 8.906c0 5.05 3.954 8.906 9.171 8.906 5.218 0 9.172-3.855 9.172-8.906S30.65 0 25.431 0c-5.217 0-9.171 3.855-9.171 8.906zm4.652 0c0-2.725 1.96-4.785 4.52-4.785 2.591 0 4.519 2.06 4.519 4.785 0 2.758-1.928 4.818-4.52 4.818-2.558 0-4.519-2.06-4.519-4.818zM16.715.332h-4.918L6.879 6.945H4.486V.332H0V17.48h4.486v-6.612H6.88l4.984 6.612h5.384L10.8 8.607 16.715.332zm33.544 0h7.643V17.48h-3.955V1.263l-2.924 16.216h-7.278L40.822 1.263v16.216h-3.954V.332h7.61l2.89 15.951L50.26.333zm19.48 17.147c4.087 0 6.746-2.525 6.746-6.147 0-3.622-2.659-6.148-6.746-6.148h-4.42V.332h-4.486V17.48h8.906zm-4.42-8.34h3.888c1.595 0 2.625.93 2.625 2.193 0 1.296-1.03 2.193-2.625 2.193H65.32V9.138zm19.933-2.194C86.082 2.891 89.505 0 93.892 0c5.05 0 8.806 3.855 8.806 8.906 0 5.05-3.755 8.906-8.806 8.906-4.387 0-7.81-2.891-8.64-6.946h-2.36v6.613h-4.486V.332h4.486v6.613h2.36zm4.187 1.96c0 2.759 1.794 4.82 4.32 4.82 2.492 0 4.32-2.061 4.32-4.82 0-2.724-1.828-4.784-4.32-4.784-2.526 0-4.32 2.06-4.32 4.785zm20.049 8.574v-6.612h7.776v6.612h4.486V.332h-4.486v6.613h-7.776V.332h-4.487V17.48h4.487zM128.937.332v16.283L133.589.332h8.142V17.48h-4.221V1.33l-4.652 16.15h-8.141V.332h4.22zm24.728 17.147V4.287h5.582V.332h-15.685v3.955h5.616v13.192h4.487zM165.284.332v16.283L169.937.332h8.141V17.48h-4.22V1.33l-4.652 16.15h-8.142V.332h4.22z" fill="#fff"/></svg>